<svg width="100%" height="100%" viewBox="0 0 290 372" version="1.1" xmlns="http://www.w3.org/2000/svg" xmlns:xlink="http://www.w3.org/1999/xlink" xml:space="preserve" xmlns:serif="http://www.serif.com/" style="fill-rule:evenodd;clip-rule:evenodd;stroke-linejoin:round;stroke-miterlimit:2;">
    <g transform="matrix(1,0,0,1,-426,-1563)">
        <g id="JG-Logo-fill" serif:id="JG Logo fill" transform="matrix(1,0,0,1,-683.971986,471.633104)">
            <path d="M1399.896,1237.179L1399.896,1318.066C1399.896,1398.036 1334.97,1462.962 1255,1462.962C1175.03,1462.962 1110.104,1398.036 1110.104,1318.066L1110.104,1237.179C1110.104,1157.209 1175.03,1092.284 1255,1092.284C1334.97,1092.284 1399.896,1157.209 1399.896,1237.179ZM1358.792,1204.723C1360.444,1228.307 1352.263,1252.454 1334.249,1270.468C1316.235,1288.482 1292.088,1296.663 1268.504,1295.011C1266.852,1271.426 1275.033,1247.28 1293.047,1229.266C1311.061,1211.252 1335.207,1203.071 1358.792,1204.723ZM1343.839,1219.676C1329.033,1221.583 1314.721,1228.216 1303.359,1239.578C1291.997,1250.94 1285.364,1265.252 1283.457,1280.058C1298.263,1278.151 1312.575,1271.518 1323.937,1260.156C1335.299,1248.794 1341.932,1234.482 1343.839,1219.676ZM1283,1313.708L1359.53,1313.708C1359.53,1371.4 1312.691,1418.238 1255,1418.238C1198.919,1418.238 1153.093,1373.978 1150.579,1318.512C1150.54,1317.852 1150.517,1317.188 1150.507,1316.519C1150.483,1315.585 1150.47,1314.648 1150.47,1313.708L1165.054,1313.708C1165.054,1314.165 1165.057,1314.621 1165.064,1315.077L1165.087,1315.077C1165.087,1316.844 1165.198,1318.586 1165.414,1320.295C1167.642,1335.024 1180.952,1345.711 1196.4,1345.711C1213.347,1345.711 1227.108,1331.963 1227.128,1315.02L1227.128,1315.013L1227.128,1294.801C1208.369,1292.936 1190.115,1284.825 1175.758,1270.468C1157.744,1252.454 1149.563,1228.307 1151.215,1204.723C1174.799,1203.071 1198.946,1211.252 1216.96,1229.266C1233.281,1245.587 1241.531,1266.943 1241.708,1288.353L1241.711,1288.353L1241.711,1315.02L1241.711,1315.028C1241.695,1332.064 1232.256,1346.911 1218.33,1354.636C1235.308,1349.515 1247.69,1333.752 1247.708,1315.118L1247.615,1257.303C1234.098,1242.312 1225.866,1222.465 1225.866,1200.71C1225.866,1175.235 1237.155,1152.376 1255,1136.867C1272.845,1152.376 1284.134,1175.235 1284.134,1200.71C1284.134,1222.564 1275.826,1242.493 1262.199,1257.508L1262.291,1315.132L1262.292,1315.513L1262.29,1315.513C1262.055,1346.161 1237.101,1370.971 1206.398,1370.971C1197.275,1370.971 1188.66,1368.781 1181.05,1364.898C1197.296,1388.311 1224.37,1403.655 1255,1403.655C1299.678,1403.655 1336.791,1371.01 1343.768,1328.292L1283,1328.292L1283,1313.708ZM1166.168,1219.676C1168.075,1234.482 1174.708,1248.794 1186.07,1260.156C1197.432,1271.518 1211.744,1278.151 1226.55,1280.058C1224.643,1265.252 1218.01,1250.94 1206.648,1239.578C1195.286,1228.216 1180.974,1221.583 1166.168,1219.676ZM1255.413,1242.866C1264.285,1231.138 1269.551,1216.535 1269.551,1200.71C1269.551,1184.642 1264.121,1169.832 1255,1158.013C1245.879,1169.832 1240.449,1184.642 1240.449,1200.71C1240.449,1216.535 1245.716,1231.139 1254.587,1242.867L1255.413,1242.866Z" style="fill: rgb(51, 85, 77);"/>
        </g>
    </g>
</svg>
