<svg xmlns="http://www.w3.org/2000/svg" xmlns:xlink="http://www.w3.org/1999/xlink" clip-rule="evenodd" fill-rule="evenodd" stroke-linejoin="round" stroke-miterlimit="2" viewBox="0 0 785 182" style="fill: rgb(0, 0, 0);" original_string_length="20939" width="426.7142832985799px" height="98.93248351635866px"><g><g><g fill-rule="nonzero" style="fill: rgb(51, 85, 77);"><path d="M1539.432,1181.448C1535.843,1181.448 1533.015,1180.51 1530.947,1178.633C1528.879,1176.755 1527.845,1174.079 1527.845,1170.603L1527.845,1168.584L1534.932,1168.584L1534.932,1170.703C1534.932,1172.355 1535.336,1173.607 1536.143,1174.458C1536.95,1175.308 1538.046,1175.734 1539.432,1175.734C1540.81,1175.734 1541.899,1175.308 1542.697,1174.458C1543.496,1173.607 1543.895,1172.347 1543.895,1170.678L1543.895,1146.426L1550.907,1146.426L1550.907,1170.578C1550.907,1174.062 1549.885,1176.745 1547.842,1178.626C1545.799,1180.508 1542.996,1181.448 1539.432,1181.448Z" transform="matrix(1,0,0,1,-2495,-1958) matrix(1,0,0,1,16,-75.213933) matrix(1.715224,0,0,1.715224,40.477996,106.575277)" style="fill: inherit;"/><path d="M1552.998,1180.984L1564.819,1146.426L1574.08,1146.426L1586.202,1180.984L1578.332,1180.984L1572.793,1164.313C1572.12,1162.161 1571.441,1159.803 1570.758,1157.241C1570.075,1154.679 1569.354,1151.887 1568.596,1148.866L1570.132,1148.866C1569.398,1151.901 1568.71,1154.707 1568.07,1157.283C1567.43,1159.86 1566.792,1162.203 1566.156,1164.313L1560.814,1180.984L1552.998,1180.984ZM1560.384,1172.964L1560.384,1167.411L1578.816,1167.411L1578.816,1172.964L1560.384,1172.964Z" transform="matrix(1,0,0,1,-2495,-1958) matrix(1,0,0,1,16,-75.213933) matrix(1.715224,0,0,1.715224,40.477996,106.575277)" style="fill: inherit;"/><path d="M1589.221,1180.984L1589.221,1146.426L1597.121,1146.426L1608.033,1163.92C1608.588,1164.818 1609.153,1165.79 1609.729,1166.838C1610.305,1167.885 1610.89,1169.05 1611.484,1170.333C1612.078,1171.616 1612.673,1173.063 1613.269,1174.672L1612.542,1174.672C1612.437,1173.384 1612.338,1172.016 1612.247,1170.568C1612.156,1169.121 1612.082,1167.73 1612.025,1166.396C1611.968,1165.063 1611.939,1163.936 1611.939,1163.016L1611.939,1146.426L1619.176,1146.426L1619.176,1180.984L1611.254,1180.984L1601.347,1165.123C1600.617,1163.927 1599.94,1162.771 1599.319,1161.654C1598.697,1160.537 1598.051,1159.299 1597.379,1157.94C1596.708,1156.58 1595.907,1154.959 1594.976,1153.078L1595.876,1153.078C1595.978,1154.744 1596.075,1156.346 1596.166,1157.883C1596.257,1159.42 1596.33,1160.809 1596.386,1162.05C1596.441,1163.291 1596.469,1164.308 1596.469,1165.102L1596.469,1180.984L1589.221,1180.984Z" transform="matrix(1,0,0,1,-2495,-1958) matrix(1,0,0,1,16,-75.213933) matrix(1.715224,0,0,1.715224,40.477996,106.575277)" style="fill: inherit;"/><path d="M1622.195,1180.984L1634.017,1146.426L1643.277,1146.426L1655.399,1180.984L1647.529,1180.984L1641.99,1164.313C1641.317,1162.161 1640.638,1159.803 1639.955,1157.241C1639.272,1154.679 1638.552,1151.887 1637.793,1148.866L1639.329,1148.866C1638.595,1151.901 1637.907,1154.707 1637.267,1157.283C1636.627,1159.86 1635.989,1162.203 1635.353,1164.313L1630.011,1180.984L1622.195,1180.984ZM1629.581,1172.964L1629.581,1167.411L1648.013,1167.411L1648.013,1172.964L1629.581,1172.964Z" transform="matrix(1,0,0,1,-2495,-1958) matrix(1,0,0,1,16,-75.213933) matrix(1.715224,0,0,1.715224,40.477996,106.575277)" style="fill: inherit;"/><path d="M1683.753,1181.448C1680.526,1181.448 1677.692,1180.731 1675.251,1179.298C1672.811,1177.864 1670.908,1175.823 1669.542,1173.175C1668.177,1170.528 1667.494,1167.387 1667.494,1163.753C1667.494,1160.013 1668.204,1156.818 1669.624,1154.166C1671.044,1151.514 1672.969,1149.484 1675.399,1148.075C1677.83,1146.666 1680.563,1145.962 1683.6,1145.962C1685.542,1145.962 1687.351,1146.243 1689.028,1146.805C1690.704,1147.367 1692.198,1148.167 1693.509,1149.206C1694.82,1150.244 1695.889,1151.472 1696.716,1152.889C1697.544,1154.307 1698.078,1155.867 1698.321,1157.57L1691.12,1157.57C1690.881,1156.741 1690.541,1155.998 1690.099,1155.342C1689.658,1154.686 1689.123,1154.127 1688.495,1153.664C1687.867,1153.201 1687.153,1152.85 1686.354,1152.609C1685.555,1152.368 1684.674,1152.248 1683.711,1152.248C1681.936,1152.248 1680.367,1152.69 1679.005,1153.576C1677.643,1154.461 1676.581,1155.755 1675.82,1157.459C1675.058,1159.162 1674.678,1161.235 1674.678,1163.678C1674.678,1166.123 1675.054,1168.2 1675.806,1169.908C1676.558,1171.617 1677.616,1172.919 1678.98,1173.816C1680.344,1174.713 1681.952,1175.162 1683.803,1175.162C1685.467,1175.162 1686.898,1174.859 1688.094,1174.253C1689.291,1173.647 1690.207,1172.787 1690.842,1171.673C1691.477,1170.559 1691.794,1169.246 1691.794,1167.733L1693.279,1167.951L1684.295,1167.951L1684.295,1162.573L1698.663,1162.573L1698.663,1166.892C1698.663,1169.911 1698.023,1172.508 1696.743,1174.681C1695.463,1176.855 1693.702,1178.527 1691.459,1179.695C1689.216,1180.864 1686.647,1181.448 1683.753,1181.448Z" transform="matrix(1,0,0,1,-2495,-1958) matrix(1,0,0,1,16,-75.213933) matrix(1.715224,0,0,1.715224,40.477996,106.575277)" style="fill: inherit;"/><path d="M1718.034,1181.448C1714.987,1181.448 1712.247,1180.752 1709.811,1179.361C1707.376,1177.969 1705.451,1175.951 1704.036,1173.307C1702.621,1170.663 1701.914,1167.47 1701.914,1163.728C1701.914,1159.971 1702.621,1156.766 1704.036,1154.114C1705.451,1151.462 1707.376,1149.441 1709.811,1148.049C1712.247,1146.657 1714.987,1145.962 1718.034,1145.962C1721.095,1145.962 1723.84,1146.657 1726.267,1148.049C1728.695,1149.441 1730.616,1151.462 1732.031,1154.114C1733.446,1156.766 1734.153,1159.971 1734.153,1163.728C1734.153,1167.47 1733.446,1170.663 1732.031,1173.307C1730.616,1175.951 1728.695,1177.969 1726.267,1179.361C1723.84,1180.752 1721.095,1181.448 1718.034,1181.448ZM1718.034,1175.163C1719.827,1175.163 1721.393,1174.726 1722.73,1173.852C1724.068,1172.979 1725.108,1171.688 1725.85,1169.979C1726.592,1168.27 1726.963,1166.187 1726.963,1163.728C1726.963,1161.239 1726.592,1159.14 1725.85,1157.431C1725.108,1155.722 1724.068,1154.431 1722.73,1153.558C1721.393,1152.684 1719.827,1152.247 1718.034,1152.247C1716.255,1152.247 1714.694,1152.688 1713.348,1153.569C1712.003,1154.451 1710.959,1155.746 1710.217,1157.454C1709.475,1159.163 1709.104,1161.254 1709.104,1163.728C1709.104,1166.187 1709.475,1168.266 1710.217,1169.967C1710.959,1171.668 1712.003,1172.959 1713.348,1173.841C1714.694,1174.722 1716.255,1175.163 1718.034,1175.163ZM1723.183,1142.854C1722.224,1142.854 1721.404,1142.521 1720.724,1141.856C1720.044,1141.191 1719.703,1140.395 1719.703,1139.467C1719.703,1138.54 1720.044,1137.747 1720.724,1137.09C1721.404,1136.433 1722.224,1136.104 1723.183,1136.104C1724.141,1136.104 1724.961,1136.433 1725.641,1137.09C1726.321,1137.747 1726.662,1138.54 1726.662,1139.467C1726.662,1140.395 1726.321,1141.191 1725.641,1141.856C1724.961,1142.521 1724.141,1142.854 1723.183,1142.854ZM1712.908,1142.854C1711.949,1142.854 1711.129,1142.521 1710.449,1141.856C1709.769,1141.191 1709.429,1140.395 1709.429,1139.467C1709.429,1138.54 1709.769,1137.747 1710.449,1137.09C1711.129,1136.433 1711.949,1136.104 1712.908,1136.104C1713.866,1136.104 1714.682,1136.433 1715.355,1137.09C1716.027,1137.747 1716.364,1138.54 1716.364,1139.467C1716.364,1140.395 1716.027,1141.191 1715.355,1141.856C1714.682,1142.521 1713.866,1142.854 1712.908,1142.854Z" transform="matrix(1,0,0,1,-2495,-1958) matrix(1,0,0,1,16,-75.213933) matrix(1.715224,0,0,1.715224,40.477996,106.575277)" style="fill: inherit;"/><path d="M1738.218,1180.984L1738.218,1146.426L1745.306,1146.426L1745.306,1175.109L1760.207,1175.109L1760.207,1180.984L1738.218,1180.984Z" transform="matrix(1,0,0,1,-2495,-1958) matrix(1,0,0,1,16,-75.213933) matrix(1.715224,0,0,1.715224,40.477996,106.575277)" style="fill: inherit;"/><path d="M1763.842,1180.984L1763.842,1146.426L1770.929,1146.426L1770.929,1175.109L1785.831,1175.109L1785.831,1180.984L1763.842,1180.984Z" transform="matrix(1,0,0,1,-2495,-1958) matrix(1,0,0,1,16,-75.213933) matrix(1.715224,0,0,1.715224,40.477996,106.575277)" style="fill: inherit;"/><path d="M1789.465,1180.984L1789.465,1146.426L1797.366,1146.426L1808.278,1163.92C1808.833,1164.818 1809.398,1165.79 1809.974,1166.838C1810.55,1167.885 1811.135,1169.05 1811.729,1170.333C1812.323,1171.616 1812.918,1173.063 1813.514,1174.672L1812.787,1174.672C1812.682,1173.384 1812.583,1172.016 1812.492,1170.568C1812.401,1169.121 1812.327,1167.73 1812.27,1166.396C1812.213,1165.063 1812.184,1163.936 1812.184,1163.016L1812.184,1146.426L1819.421,1146.426L1819.421,1180.984L1811.499,1180.984L1801.592,1165.123C1800.861,1163.927 1800.185,1162.771 1799.564,1161.654C1798.942,1160.537 1798.295,1159.299 1797.624,1157.94C1796.953,1156.58 1796.152,1154.959 1795.221,1153.078L1796.121,1153.078C1796.223,1154.744 1796.32,1156.346 1796.411,1157.883C1796.502,1159.42 1796.575,1160.809 1796.631,1162.05C1796.686,1163.291 1796.714,1164.308 1796.714,1165.102L1796.714,1180.984L1789.465,1180.984Z" transform="matrix(1,0,0,1,-2495,-1958) matrix(1,0,0,1,16,-75.213933) matrix(1.715224,0,0,1.715224,40.477996,106.575277)" style="fill: inherit;"/><path d="M1824.432,1180.984L1824.432,1146.426L1847.571,1146.426L1847.571,1152.301L1831.519,1152.301L1831.519,1160.643L1846.347,1160.643L1846.347,1166.418L1831.519,1166.418L1831.519,1175.109L1847.617,1175.109L1847.617,1180.984L1824.432,1180.984Z" transform="matrix(1,0,0,1,-2495,-1958) matrix(1,0,0,1,16,-75.213933) matrix(1.715224,0,0,1.715224,40.477996,106.575277)" style="fill: inherit;"/><path d="M1852.049,1180.984L1852.049,1146.426L1865.531,1146.426C1868.155,1146.426 1870.387,1146.89 1872.226,1147.818C1874.066,1148.746 1875.47,1150.054 1876.438,1151.742C1877.406,1153.429 1877.89,1155.406 1877.89,1157.671C1877.89,1159.953 1877.4,1161.916 1876.419,1163.56C1875.439,1165.204 1874.016,1166.464 1872.15,1167.341C1870.285,1168.217 1868.024,1168.655 1865.366,1168.655L1856.236,1168.655L1856.236,1162.92L1864.244,1162.92C1865.684,1162.92 1866.872,1162.722 1867.806,1162.326C1868.74,1161.93 1869.438,1161.344 1869.898,1160.567C1870.358,1159.789 1870.588,1158.824 1870.588,1157.671C1870.588,1156.504 1870.358,1155.52 1869.898,1154.72C1869.438,1153.92 1868.739,1153.311 1867.801,1152.893C1866.863,1152.474 1865.67,1152.265 1864.222,1152.265L1859.136,1152.265L1859.136,1180.984L1852.049,1180.984ZM1871.277,1180.984L1862.877,1165.259L1870.546,1165.259L1879.135,1180.984L1871.277,1180.984Z" transform="matrix(1,0,0,1,-2495,-1958) matrix(1,0,0,1,16,-75.213933) matrix(1.715224,0,0,1.715224,40.477996,106.575277)" style="fill: inherit;"/></g><g><path d="M1399.896,1237.179L1399.896,1318.066C1399.896,1398.036 1334.97,1462.962 1255,1462.962C1175.03,1462.962 1110.104,1398.036 1110.104,1318.066L1110.104,1237.179C1110.104,1157.209 1175.03,1092.284 1255,1092.284C1334.97,1092.284 1399.896,1157.209 1399.896,1237.179ZM1358.792,1204.723C1360.444,1228.307 1352.263,1252.454 1334.249,1270.468C1316.235,1288.482 1292.088,1296.663 1268.504,1295.011C1266.852,1271.426 1275.033,1247.28 1293.047,1229.266C1311.061,1211.252 1335.207,1203.071 1358.792,1204.723ZM1343.839,1219.676C1329.033,1221.583 1314.721,1228.216 1303.359,1239.578C1291.997,1250.94 1285.364,1265.252 1283.457,1280.058C1298.263,1278.151 1312.575,1271.518 1323.937,1260.156C1335.299,1248.794 1341.932,1234.482 1343.839,1219.676ZM1283,1313.708L1359.53,1313.708C1359.53,1371.4 1312.691,1418.238 1255,1418.238C1198.919,1418.238 1153.093,1373.978 1150.579,1318.512C1150.54,1317.852 1150.517,1317.188 1150.507,1316.519C1150.483,1315.585 1150.47,1314.648 1150.47,1313.708L1165.054,1313.708C1165.054,1314.165 1165.057,1314.621 1165.064,1315.077L1165.087,1315.077C1165.087,1316.844 1165.198,1318.586 1165.414,1320.295C1167.642,1335.024 1180.952,1345.711 1196.4,1345.711C1213.347,1345.711 1227.108,1331.963 1227.128,1315.02L1227.128,1315.013L1227.128,1294.801C1208.369,1292.936 1190.115,1284.825 1175.758,1270.468C1157.744,1252.454 1149.563,1228.307 1151.215,1204.723C1174.799,1203.071 1198.946,1211.252 1216.96,1229.266C1233.281,1245.587 1241.531,1266.943 1241.708,1288.353L1241.711,1288.353L1241.711,1315.02L1241.711,1315.028C1241.695,1332.064 1232.256,1346.911 1218.33,1354.636C1235.308,1349.515 1247.69,1333.752 1247.708,1315.118L1247.615,1257.303C1234.098,1242.312 1225.866,1222.465 1225.866,1200.71C1225.866,1175.235 1237.155,1152.376 1255,1136.867C1272.845,1152.376 1284.134,1175.235 1284.134,1200.71C1284.134,1222.564 1275.826,1242.493 1262.199,1257.508L1262.291,1315.132L1262.292,1315.513L1262.29,1315.513C1262.055,1346.161 1237.101,1370.971 1206.398,1370.971C1197.275,1370.971 1188.66,1368.781 1181.05,1364.898C1197.296,1388.311 1224.37,1403.655 1255,1403.655C1299.678,1403.655 1336.791,1371.01 1343.768,1328.292L1283,1328.292L1283,1313.708ZM1166.168,1219.676C1168.075,1234.482 1174.708,1248.794 1186.07,1260.156C1197.432,1271.518 1211.744,1278.151 1226.55,1280.058C1224.643,1265.252 1218.01,1250.94 1206.648,1239.578C1195.286,1228.216 1180.974,1221.583 1166.168,1219.676ZM1255.413,1242.866C1264.285,1231.138 1269.551,1216.535 1269.551,1200.71C1269.551,1184.642 1264.121,1169.832 1255,1158.013C1245.879,1169.832 1240.449,1184.642 1240.449,1200.71C1240.449,1216.535 1245.716,1231.139 1254.587,1242.867L1255.413,1242.866Z" transform="matrix(1,0,0,1,-2495,-1958) matrix(1,0,0,1,16,-75.213933) matrix(0.489084,0,0,0.489084,1936.460948,1499.159284)" style="fill: rgb(51, 85, 77);"/></g><g fill-rule="nonzero" style="fill: rgb(51, 85, 77);"><path d="M2680.882,537.893L2680.882,501.516L2686.461,501.516L2686.461,516.896L2704.472,516.896L2704.472,501.516L2710.051,501.516L2710.051,537.893L2704.472,537.893L2704.472,521.692L2686.461,521.692L2686.461,537.893L2680.882,537.893Z" transform="matrix(1,0,0,1,-2495,-1958) matrix(1,0,0,1,16,-75.213933) matrix(1,-0,0,1,-21.064866,1654.799848)" style="fill: inherit;"/><path d="M2730.501,537.893L2730.501,501.516L2753.399,501.516L2753.399,506.312L2736.081,506.312L2736.081,517.149L2752.172,517.149L2752.172,521.91L2736.081,521.91L2736.081,533.098L2753.562,533.098L2753.562,537.893L2730.501,537.893Z" transform="matrix(1,0,0,1,-2495,-1958) matrix(1,0,0,1,16,-75.213933) matrix(1,-0,0,1,-21.064866,1654.799848)" style="fill: inherit;"/><path d="M2773.061 501.516H2778.6400000000003V537.893H2773.061z" transform="matrix(1,0,0,1,-2495,-1958) matrix(1,0,0,1,16,-75.213933) matrix(1,-0,0,1,-21.064866,1654.799848)" style="fill: inherit;"/><path d="M2799.09,537.893L2799.09,501.516L2804.67,501.516L2804.67,533.098L2821.129,533.098L2821.129,537.893L2799.09,537.893Z" transform="matrix(1,0,0,1,-2495,-1958) matrix(1,0,0,1,16,-75.213933) matrix(1,-0,0,1,-21.064866,1654.799848)" style="fill: inherit;"/><path d="M2839.762,537.893L2839.762,501.516L2852.793,501.516C2855.602,501.516 2857.939,502.036 2859.805,503.076C2861.672,504.115 2863.07,505.523 2864.001,507.3C2864.932,509.076 2865.398,511.085 2865.398,513.326C2865.398,515.57 2864.93,517.583 2863.995,519.366C2863.059,521.149 2861.657,522.56 2859.787,523.6C2857.917,524.64 2855.572,525.16 2852.752,525.16L2843.837,525.16L2843.837,520.437L2852.211,520.437C2853.997,520.437 2855.445,520.13 2856.556,519.515C2857.666,518.899 2858.478,518.054 2858.99,516.978C2859.503,515.902 2859.76,514.685 2859.76,513.326C2859.76,511.961 2859.503,510.748 2858.99,509.687C2858.478,508.626 2857.663,507.794 2856.546,507.19C2855.429,506.586 2853.97,506.284 2852.171,506.284L2845.341,506.284L2845.341,537.893L2839.762,537.893Z" transform="matrix(1,0,0,1,-2495,-1958) matrix(1,0,0,1,16,-75.213933) matrix(1,-0,0,1,-21.064866,1654.799848)" style="fill: inherit;"/><path d="M2884.254,537.893L2884.254,501.516L2897.285,501.516C2900.094,501.516 2902.431,502.002 2904.297,502.973C2906.163,503.945 2907.562,505.291 2908.493,507.011C2909.424,508.732 2909.89,510.711 2909.89,512.949C2909.89,515.193 2909.422,517.157 2908.487,518.84C2907.551,520.524 2906.149,521.831 2904.279,522.763C2902.409,523.694 2900.064,524.16 2897.243,524.16L2887.448,524.16L2887.448,519.397L2896.703,519.397C2898.489,519.397 2899.933,519.14 2901.037,518.627C2902.141,518.114 2902.953,517.376 2903.472,516.415C2903.992,515.453 2904.251,514.298 2904.251,512.949C2904.251,511.574 2903.992,510.39 2903.472,509.399C2902.953,508.408 2902.138,507.64 2901.027,507.098C2899.917,506.555 2898.462,506.284 2896.663,506.284L2889.833,506.284L2889.833,537.893L2884.254,537.893ZM2904.932,537.893L2896.126,521.454L2902.3,521.454L2911.271,537.893L2904.932,537.893Z" transform="matrix(1,0,0,1,-2495,-1958) matrix(1,0,0,1,16,-75.213933) matrix(1,-0,0,1,-21.064866,1654.799848)" style="fill: inherit;"/><path d="M2926.269,537.893L2939.222,501.516L2946.052,501.516L2959.225,537.893L2953.208,537.893L2946.122,517.656C2945.57,516.011 2944.966,514.074 2944.309,511.846C2943.651,509.618 2942.891,506.943 2942.028,503.821L2943.153,503.821C2942.309,506.97 2941.561,509.671 2940.908,511.926C2940.255,514.181 2939.676,516.091 2939.17,517.656L2932.299,537.893L2926.269,537.893ZM2933.288,528.309L2933.288,523.658L2952.206,523.658L2952.206,528.309L2933.288,528.309Z" transform="matrix(1,0,0,1,-2495,-1958) matrix(1,0,0,1,16,-75.213933) matrix(1,-0,0,1,-21.064866,1654.799848)" style="fill: inherit;"/><path d="M2980.845,528.218L2980.845,522.651C2981.645,521.442 2982.44,520.299 2983.228,519.224C2984.016,518.148 2984.841,517.089 2985.702,516.047C2986.564,515.004 2987.484,513.931 2988.463,512.829L2998.672,501.516L3005.762,501.516L2990.291,518.54L2989.924,518.45L2980.845,528.218ZM2976.893,537.893L2976.893,501.516L2982.472,501.516L2982.472,513.133L2982.377,521.444L2982.472,524.172L2982.472,537.893L2976.893,537.893ZM2999.309,537.893L2986.941,520.086L2990.428,515.823L3005.905,537.893L2999.309,537.893Z" transform="matrix(1,0,0,1,-2495,-1958) matrix(1,0,0,1,16,-75.213933) matrix(1,-0,0,1,-21.064866,1654.799848)" style="fill: inherit;"/><path d="M3021.856,506.312L3021.856,501.516L3050.084,501.516L3050.084,506.312L3038.78,506.312L3038.78,537.893L3033.201,537.893L3033.201,506.312L3021.856,506.312Z" transform="matrix(1,0,0,1,-2495,-1958) matrix(1,0,0,1,16,-75.213933) matrix(1,-0,0,1,-21.064866,1654.799848)" style="fill: inherit;"/><path d="M3068.718 501.516H3074.297V537.893H3068.718z" transform="matrix(1,0,0,1,-2495,-1958) matrix(1,0,0,1,16,-75.213933) matrix(1,-0,0,1,-21.064866,1654.799848)" style="fill: inherit;"/><path d="M3098.699,528.218L3098.699,522.651C3099.5,521.442 3100.295,520.299 3101.083,519.224C3101.871,518.148 3102.696,517.089 3103.557,516.047C3104.418,515.004 3105.338,513.931 3106.317,512.829L3116.527,501.516L3123.617,501.516L3108.146,518.54L3107.779,518.45L3098.699,528.218ZM3094.748,537.893L3094.748,501.516L3100.327,501.516L3100.327,513.133L3100.232,521.444L3100.327,524.172L3100.327,537.893L3094.748,537.893ZM3117.163,537.893L3104.795,520.086L3108.283,515.823L3123.76,537.893L3117.163,537.893Z" transform="matrix(1,0,0,1,-2495,-1958) matrix(1,0,0,1,16,-75.213933) matrix(1,-0,0,1,-21.064866,1654.799848)" style="fill: inherit;"/><path d="M3141.528,537.893L3141.528,501.516L3164.426,501.516L3164.426,506.312L3147.107,506.312L3147.107,517.149L3163.199,517.149L3163.199,521.91L3147.107,521.91L3147.107,533.098L3164.588,533.098L3164.588,537.893L3141.528,537.893Z" transform="matrix(1,0,0,1,-2495,-1958) matrix(1,0,0,1,16,-75.213933) matrix(1,-0,0,1,-21.064866,1654.799848)" style="fill: inherit;"/><path d="M3184.087,537.893L3184.087,501.516L3197.119,501.516C3199.927,501.516 3202.265,502.002 3204.131,502.973C3205.997,503.945 3207.396,505.291 3208.327,507.011C3209.258,508.732 3209.723,510.711 3209.723,512.949C3209.723,515.193 3209.255,517.157 3208.32,518.84C3207.385,520.524 3205.982,521.831 3204.112,522.763C3202.242,523.694 3199.897,524.16 3197.077,524.16L3187.282,524.16L3187.282,519.397L3196.536,519.397C3198.322,519.397 3199.767,519.14 3200.871,518.627C3201.974,518.114 3202.786,517.376 3203.306,516.415C3203.825,515.453 3204.085,514.298 3204.085,512.949C3204.085,511.574 3203.825,510.39 3203.306,509.399C3202.786,508.408 3201.971,507.64 3200.861,507.098C3199.751,506.555 3198.296,506.284 3196.496,506.284L3189.667,506.284L3189.667,537.893L3184.087,537.893ZM3204.766,537.893L3195.959,521.454L3202.133,521.454L3211.104,537.893L3204.766,537.893Z" transform="matrix(1,0,0,1,-2495,-1958) matrix(1,0,0,1,16,-75.213933) matrix(1,-0,0,1,-21.064866,1654.799848)" style="fill: inherit;"/><path d="M3228.885 501.516H3234.4640000000004V537.893H3228.885z" transform="matrix(1,0,0,1,-2495,-1958) matrix(1,0,0,1,16,-75.213933) matrix(1,-0,0,1,-21.064866,1654.799848)" style="fill: inherit;"/><path d="M3254.915,537.893L3254.915,501.516L3261.333,501.516L3275.024,523.166C3275.48,523.882 3275.993,524.739 3276.564,525.736C3277.135,526.733 3277.739,527.852 3278.376,529.094C3279.013,530.337 3279.642,531.69 3280.263,533.156L3279.569,533.156C3279.434,531.771 3279.329,530.398 3279.254,529.039C3279.179,527.679 3279.125,526.407 3279.094,525.223C3279.063,524.039 3279.048,523.036 3279.048,522.214L3279.048,501.516L3284.68,501.516L3284.68,537.893L3278.222,537.893L3265.957,518.526C3265.299,517.466 3264.657,516.401 3264.032,515.331C3263.407,514.261 3262.717,513.024 3261.96,511.619C3261.204,510.214 3260.277,508.498 3259.18,506.471L3260.066,506.471C3260.156,508.26 3260.239,509.934 3260.314,511.493C3260.389,513.053 3260.45,514.43 3260.497,515.625C3260.543,516.82 3260.566,517.774 3260.566,518.486L3260.566,537.893L3254.915,537.893Z" transform="matrix(1,0,0,1,-2495,-1958) matrix(1,0,0,1,16,-75.213933) matrix(1,-0,0,1,-21.064866,1654.799848)" style="fill: inherit;"/></g></g></g></svg>