<svg stroke="#000" stroke-linecap="square" stroke-miterlimit="10" viewBox="0 0 94.79 92.74" xmlns="http://www.w3.org/2000/svg" xmlns:xlink="http://www.w3.org/1999/xlink" style="fill: rgb(0, 0, 0);" original_string_length="22177" width="529.6338616950634px" height="518.185580487138px"><defs><clipPath id="__id6_so2l88fbo6"><path d="M4.17 3.14V89.6H90.62V3.14Z"/></clipPath><clipPath clip-path="url(#__id6_so2l88fbo6)" id="__id7_so2l88fbo6"><path d="M4.17 89.6H90.62V3.14H4.17Z"/></clipPath><clipPath clip-path="url(#__id7_so2l88fbo6)" id="__id8_so2l88fbo6"><path d="M4.17 3.14H90.62V89.6H4.17Z"/></clipPath></defs><g><g stroke="none" style="fill: rgb(12, 123, 195);"><path clip-path="url(#__id8_so2l88fbo6)" d="M37.12 23.7c-.69-.02-.51-.09-2.04-.21-.11-.01-.27-.02-.25-.18s.17-.13.28-.13c.85.05 1.58.04 2.56.19.25.04.52.02.78.03.11.01.27-.02.28.14s-.16.14-.27.14c-.44 0-.88 0-1.33 0" style="fill: inherit;"/><path clip-path="url(#__id8_so2l88fbo6)" d="M31.31 82.27l-3.27 2.81-2.42-1.13.07-.15.19.09c.17.08.33.12.46.11.09 0 .18-.04.26-.11.06-.05.15-.21.28-.47l1.66-3.56c.13-.28.19-.46.2-.54s-.04-.17-.11-.27-.19-.19-.36-.26l-.19-.09.07-.15L31.24 80l-.07.15-.19-.09c-.17-.08-.33-.12-.46-.11-.09 0-.18.04-.27.11-.06.05-.16.21-.28.48l-1.87 4 4.58-3.86.11.05.03 5.97 1.77-3.8c.12-.26.19-.43.21-.5.02-.15-.01-.3-.1-.44s-.27-.28-.54-.4l.07-.15 2.03.95-.07.15-.06-.03c-.13-.06-.26-.1-.39-.11s-.25 0-.34.05-.18.12-.27.23c-.02.03-.08.16-.2.4l-1.59 3.42c-.13.27-.19.45-.19.53s.04.17.11.27.19.18.36.26l.19.09-.07.15-2.43-1.13Z" style="fill: inherit;"/><path clip-path="url(#__id8_so2l88fbo6)" d="M24.4 80.84l1.77-2.73c.16-.24.23-.42.21-.53s-.11-.22-.29-.35l.09-.13 2.05 1.33-.09.13c-.17-.1-.32-.14-.46-.11-.09.02-.22.15-.37.4L26 80.86c-.16.24-.23.42-.21.53s.11.22.28.35l-.09.14Zm-.52 2.04c-.18-.11-.29-.27-.34-.46s-.02-.36.08-.52.25-.25.45-.28.38.01.55.12.28.26.33.45.02.36-.08.52-.25.25-.44.28-.38-.01-.55-.12" style="fill: inherit;"/><path clip-path="url(#__id8_so2l88fbo6)" d="M20.87 79.99l.95-1.17-.83-.68.27-.34.83.68 1.6-1.97c.15-.18.24-.31.26-.38s.03-.14.01-.21-.05-.12-.09-.16c-.16-.13-.41-.14-.73-.04l-.05-.17c.56-.27 1.06-.22 1.52.15.22.18.37.39.43.63s.06.44-.01.62c-.04.1-.2.32-.47.66l-1.4 1.72.46.37-.1.12c-.48-.05-.92-.06-1.32-.02s-.8.14-1.19.28Z" style="fill: inherit;"/><path clip-path="url(#__id8_so2l88fbo6)" d="M22.26 73.02c.24.23.41.36.52.4.2.06.35.04.46-.07s.13-.27.08-.49-.27-.51-.65-.88c-.32-.31-.61-.52-.87-.62s-.46-.08-.59.06c-.05.05-.08.11-.08.18 0 .12.06.26.16.4s.43.48.98 1.01m-3.38 3.09c.13.13.31.18.52.14s.5-.24.88-.63c.3-.31.47-.57.49-.78s-.03-.37-.15-.49c-.14-.13-.31-.19-.52-.16s-.47.21-.79.54c-.36.38-.56.69-.59.92-.02.17.03.32.17.45m-.67-.51l-1.1-1.06.34-.35.62.6c-.01-.21 0-.38.04-.51.05-.17.14-.31.26-.44.2-.21.44-.33.72-.36s.57.02.88.14.55.27.72.44c.01.01.15.15.4.42.1.1.22.15.35.16s.24-.03.32-.12c.07-.08.1-.17.08-.28s-.1-.24-.24-.37l-.61-.58c-.49-.47-.77-.84-.86-1.11-.13-.39-.06-.72.21-1 .17-.18.39-.28.65-.31s.53.02.79.14c.4.19.79.47 1.18.84.29.28.53.57.73.85s.29.52.31.71-.02.34-.12.44-.22.15-.37.14-.36-.08-.64-.24c.17.43.14.76-.09 1-.14.15-.34.23-.59.24s-.57-.05-.93-.21c.21.4.31.76.28 1.06s-.14.56-.36.78c-.28.29-.65.41-1.11.38s-.9-.26-1.31-.65c-.22-.21-.4-.46-.55-.77" style="fill: inherit;"/><path clip-path="url(#__id8_so2l88fbo6)" d="M14.02 73.56l3.97-3.22c.23-.18.35-.33.36-.43s-.04-.25-.17-.43l.12-.1 1.54 1.9-.12.1c-.13-.15-.26-.23-.4-.25-.09-.01-.25.08-.48.26l-3.3 2.68c-.22.18-.34.32-.36.43s.04.25.16.42l-.13.1Z" style="fill: inherit;"/><path clip-path="url(#__id8_so2l88fbo6)" d="M13.41 69.72l2.67-1.87c.24-.17.37-.3.39-.41s-.02-.25-.14-.44l.13-.09 1.4 2-.13.09c-.12-.16-.25-.25-.38-.27-.09-.01-.26.06-.49.23l-1.96 1.38c-.24.17-.37.3-.39.41s.02.25.13.43l-.13.09Zm-1.24 1.7c-.12-.17-.17-.35-.14-.55s.11-.35.27-.45.33-.14.52-.09.35.15.47.32.17.35.14.55-.11.35-.27.45-.33.14-.52.1-.35-.15-.46-.32" style="fill: inherit;"/><path clip-path="url(#__id8_so2l88fbo6)" d="M12.83 65.52c-.41.23-.68.41-.81.54s-.2.28-.22.42c-.01.09.01.18.06.27.08.15.21.23.4.25.32.04.68-.05 1.08-.27l.13-.07Zm-.32-1.18l1.2 2.17c.46-.29.76-.64.9-1.05.11-.31.08-.6-.07-.88-.09-.17-.22-.3-.38-.39s-.4-.15-.71-.19l.01-.19c.52-.01.93.07 1.24.24s.56.42.75.76c.32.59.37 1.14.12 1.67-.2.43-.54.77-1.03 1.05-.6.33-1.18.42-1.73.26s-.96-.48-1.23-.96c-.22-.4-.26-.83-.13-1.29s.49-.86 1.07-1.21" style="fill: inherit;"/><path clip-path="url(#__id8_so2l88fbo6)" d="M10.2 61.21c-.3.38-.38.73-.25 1.05.04.11.11.19.19.24.13.08.31.11.55.09s.58-.11 1.02-.29c.48-.19.82-.38 1.02-.55s.32-.35.37-.52c.02-.09.01-.19-.04-.31-.11-.26-.39-.44-.86-.52ZM7.1 61l4.38-1.77c.3-.12.47-.2.52-.24.08-.06.13-.13.14-.22s0-.21-.06-.38l.13-.06 1.03 1.64-.6.24c.32.12.56.24.71.38s.27.3.35.51c.22.54.17 1.05-.14 1.53-.25.39-.63.69-1.15.9-.41.17-.81.24-1.2.21s-.72-.14-.99-.34-.47-.46-.6-.77c-.08-.2-.12-.39-.11-.58s.07-.4.17-.65l-1.15.46c-.29.12-.46.2-.51.25-.07.07-.1.14-.11.23s.03.23.11.43l-.17.07Z" style="fill: inherit;"/><path clip-path="url(#__id8_so2l88fbo6)" d="M7.25 54.18l3.2-.62c.28-.05.46-.13.53-.22s.08-.24.05-.45l.16-.03.47 2.4-.16.03c-.04-.19-.12-.33-.24-.4-.08-.05-.26-.05-.55.01l-2.35.46c-.29.06-.46.13-.53.22s-.08.24-.05.45l-.16.03ZM5.42 55.23c-.04-.21-.01-.39.09-.56s.25-.27.43-.31.36.01.51.12.26.28.3.48.01.39-.09.56-.25.27-.43.31-.35-.01-.51-.12-.26-.28-.3-.48" style="fill: inherit;"/><path clip-path="url(#__id8_so2l88fbo6)" d="M6.78 51.11l.54-.04c-.26-.23-.45-.45-.56-.65s-.18-.43-.2-.68c-.02-.29.02-.54.13-.74s.28-.37.53-.49c-.28-.24-.49-.47-.62-.7s-.21-.47-.23-.73c-.02-.31.03-.57.14-.76s.27-.33.47-.42.51-.14.95-.17l1.68-.12c.32-.02.51-.07.58-.14s.11-.2.12-.4l.16-.01.16 2.33-.16.01c-.03-.18-.1-.31-.22-.39-.08-.05-.27-.07-.55-.05l-1.76.12c-.37.02-.6.06-.69.09s-.17.1-.21.17-.06.16-.06.25c.01.14.07.28.17.41s.25.27.44.4l2.2-.15c.3-.02.48-.06.55-.12.1-.08.15-.23.15-.44l.16-.01.16 2.33-.16.01c-.02-.12-.05-.22-.11-.29s-.12-.11-.19-.13-.23-.02-.47 0l-1.76.12c-.37.03-.6.06-.69.1s-.16.1-.21.18-.07.16-.06.25c.01.13.05.24.12.34.1.15.27.29.5.45l2.2-.15c.29-.02.48-.06.57-.13s.13-.2.14-.4l.16-.01.16 2.32-.16.01c-.03-.19-.09-.32-.19-.39-.07-.05-.26-.06-.58-.04l-2.32.16c-.31.02-.5.07-.57.14s-.11.2-.12.4l-.16.01Z" style="fill: inherit;"/><path clip-path="url(#__id8_so2l88fbo6)" d="M6.45 34.9l.16.03c-.01.24.05.47.21.69.12.17.41.43.88.81l3.98 3.15-.03.16-5.1 1.21c-.62.15-.98.25-1.1.32s-.21.22-.29.47L5 41.72l.65-3.07.16.03-.02.1c-.06.28-.07.47-.03.59.03.08.08.13.17.15.05.01.12.01.19 0s.28-.06.62-.13l3.19-.75-2.31-1.82c-.28-.22-.47-.36-.57-.41s-.18-.09-.26-.11c-.09-.02-.17-.01-.24.03s-.14.1-.2.19c-.08.12-.14.3-.19.53L6 37Z" style="fill: inherit;"/><path clip-path="url(#__id8_so2l88fbo6)" d="M10.67 33.39c-.45-.15-.76-.23-.95-.24s-.34.04-.46.12c-.07.05-.13.12-.16.23-.06.16-.03.31.08.46.18.26.49.47.92.62l.14.05Zm.66-1.03l-.81 2.34c.53.15.99.14 1.38-.03.3-.13.5-.34.61-.64.06-.18.07-.37.03-.55s-.15-.4-.34-.65l.15-.12c.35.38.56.74.65 1.08s.06.7-.07 1.07c-.22.63-.61 1.04-1.16 1.21-.45.14-.94.12-1.47-.06-.65-.22-1.1-.59-1.35-1.11s-.29-1.04-.11-1.55c.15-.43.44-.75.87-.96s.97-.21 1.61-.02" style="fill: inherit;"/><path clip-path="url(#__id8_so2l88fbo6)" d="M10.69 29.23l.84.41c-.25-.46-.39-.82-.41-1.08s.01-.49.1-.68c.08-.16.19-.27.33-.32s.29-.04.46.04.29.2.34.34.04.28-.02.41c-.07.15-.18.27-.33.33s-.23.11-.25.13-.05.05-.07.09c-.04.08-.05.18-.03.28.03.16.12.31.25.45.21.22.47.4.78.55l.85.41.22.1c.15.07.25.11.3.11.09 0 .17-.03.23-.08s.14-.16.23-.32l.14.07-1.07 2.19-.14-.07c.07-.18.09-.32.04-.42s-.23-.23-.55-.38l-2.04-1c-.21-.1-.35-.16-.42-.16-.09-.01-.16.01-.22.05s-.13.12-.21.26l-.15-.07Z" style="fill: inherit;"/><path clip-path="url(#__id8_so2l88fbo6)" d="M13.6 25.64l1.53 1c.31.2.52.32.61.36.16.07.32.08.48.03s.28-.15.39-.31c.09-.14.13-.28.12-.42s-.09-.32-.26-.52-.53-.48-1.08-.84c-.53-.34-.94-.51-1.23-.49-.21.01-.37.11-.49.29-.15.23-.18.53-.08.9m-2.23-1.44l1.9 1.23c-.09-.51-.02-.96.23-1.34.17-.26.4-.46.69-.6s.6-.19.94-.16.68.16 1.01.38c.38.24.66.55.86.91s.29.74.27 1.12-.14.75-.37 1.1c-.13.21-.28.37-.44.49s-.36.22-.59.28l-.04.87-.09.14-4.38-2.85c-.2-.13-.33-.2-.39-.21-.09-.02-.16-.01-.24.03s-.15.12-.25.26l-.14-.09Z" style="fill: inherit;"/><path clip-path="url(#__id8_so2l88fbo6)" d="M19.28 22.24l-1.02-.92c-.11.43-.14.79-.09 1.09.03.2.11.35.23.46.1.09.22.13.37.12.11-.01.22-.07.31-.17.11-.12.17-.31.19-.58m.24.21c-.04.71-.21 1.22-.5 1.55-.17.19-.37.3-.6.32s-.43-.04-.6-.19c-.23-.21-.34-.51-.33-.9s.2-1.09.56-2.11l-.31-.28c-.23-.21-.39-.33-.47-.35s-.18-.02-.3.02-.22.1-.3.2c-.14.15-.22.31-.25.47-.02.1 0 .17.06.22s.13.06.26.05c.18-.01.31.03.4.11.1.1.16.22.15.38s-.07.3-.2.44c-.14.15-.29.24-.47.27s-.32-.01-.43-.11c-.16-.14-.24-.35-.26-.61s.04-.55.19-.87.33-.6.57-.86c.29-.32.58-.52.87-.59s.53-.07.72 0c.12.05.35.22.68.52l1.19 1.07c.14.12.23.2.28.22s.09.03.13.02.07-.03.1-.06c.06-.06.07-.16.05-.3l.17-.04c.05.26.06.49.02.69s-.14.37-.28.54c-.17.19-.35.3-.53.34s-.36-.01-.55-.14" style="fill: inherit;"/><path clip-path="url(#__id8_so2l88fbo6)" d="M20.23 16.74l.36.4c.02-.33.07-.6.16-.82s.22-.41.41-.57c.22-.2.45-.31.69-.32s.46.03.66.15c.15.09.39.31.7.66l1.07 1.19c.21.23.37.36.47.38s.23-.04.39-.15l.11.12-1.7 1.53-.11-.12c.11-.13.16-.26.14-.39-.01-.09-.11-.24-.31-.46l-1.22-1.36c-.22-.25-.38-.4-.46-.44s-.16-.06-.25-.05-.16.04-.22.1c-.21.18-.28.49-.21.92l1.47 1.64c.2.23.36.35.46.37s.22-.02.36-.12l.11.12-1.7 1.53-.11-.12c.13-.14.19-.27.19-.4 0-.08-.11-.24-.32-.48l-1.55-1.72c-.21-.23-.36-.35-.46-.37s-.23.04-.39.15l-.11-.12Z" style="fill: inherit;"/><path clip-path="url(#__id8_so2l88fbo6)" d="M26.11 13.46c-.43-.22-.78-.24-1.07-.05-.1.06-.17.14-.2.23-.05.14-.05.33.02.56s.22.55.48.94c.28.43.53.73.73.9s.4.25.58.27c.09.01.19-.03.3-.1.24-.15.35-.47.34-.95Zm-.38-3.07l2.57 3.96c.17.27.29.42.33.46.08.07.16.1.24.1s.21-.04.36-.13l.08.12-1.42 1.32-.35-.54c-.05.34-.13.59-.23.76s-.25.32-.43.44c-.48.31-.99.37-1.53.15-.43-.17-.8-.49-1.1-.95-.24-.37-.39-.75-.44-1.13s0-.73.15-1.04.36-.55.64-.74c.18-.12.36-.19.55-.22s.4-.01.67.04l-.67-1.04c-.17-.26-.29-.41-.35-.45-.08-.05-.16-.07-.25-.06s-.22.07-.4.18l-.1-.15Z" style="fill: inherit;"/><path clip-path="url(#__id8_so2l88fbo6)" d="M32.23 7.66l1.51 4.4c.08.23.14.37.18.42s.1.07.17.08c.1.01.22-.01.38-.06.51-.18.84-.47 1-.88.22-.55.17-1.28-.14-2.18-.25-.72-.57-1.26-.97-1.6-.32-.27-.65-.41-1-.43-.25-.01-.63.07-1.14.25m-.53 6.13l-.05-.15.2-.07c.18-.06.31-.13.39-.22s.12-.18.14-.28c.01-.07-.04-.25-.14-.54L30.96 8.82c-.1-.29-.18-.46-.24-.52s-.15-.1-.27-.12-.27 0-.44.06l-.2.07-.05-.15 2.77-.95c.74-.26 1.37-.37 1.88-.34.63.03 1.16.23 1.6.59s.76.82.96 1.4c.14.4.19.78.17 1.17s-.11.72-.26 1.01-.34.56-.59.79-.57.46-.96.67c-.17.1-.46.21-.86.35Z" style="fill: inherit;"/><path clip-path="url(#__id8_so2l88fbo6)" d="M40.51 8.63c-.09-.46-.18-.78-.27-.94s-.2-.28-.33-.34c-.08-.04-.17-.05-.28-.03-.17.03-.28.13-.36.3-.14.29-.16.66-.08 1.11l.03.15Zm1.22.06l-2.44.47c.13.53.37.92.72 1.18.26.2.55.26.86.2.19-.04.35-.12.49-.25s.27-.33.4-.62l.18.06c-.15.49-.36.86-.61 1.1s-.57.4-.96.47c-.66.13-1.2 0-1.63-.4-.34-.32-.57-.75-.67-1.3-.13-.67-.03-1.25.29-1.72s.75-.77 1.29-.87c.45-.09.87 0 1.27.28s.67.73.82 1.39" style="fill: inherit;"/><path clip-path="url(#__id8_so2l88fbo6)" d="M46.54 6.35l.22 3.21c.02.31.07.51.14.58s.2.11.4.12l.01.16-1.84.13-.04-.55c-.2.25-.4.43-.61.55s-.45.19-.71.21c-.25.02-.49-.04-.69-.17s-.35-.29-.43-.47-.14-.51-.17-.99L42.7 7.51c-.02-.31-.07-.5-.14-.57s-.2-.11-.4-.12l-.01-.16 1.84-.13.2 2.8c.02.29.05.48.08.56s.09.14.16.18.15.06.23.05c.12-.01.22-.04.31-.11.12-.08.27-.25.43-.49l-.15-2.19c-.02-.31-.07-.5-.14-.57s-.2-.11-.4-.12l-.01-.16Z" style="fill: inherit;"/><path clip-path="url(#__id8_so2l88fbo6)" d="M49.98 5l-.05 1.5L51 6.54l-.02.43-1.07-.04-.09 2.53c-.01.24 0 .39.02.46s.06.13.12.17.12.07.17.07c.21.01.41-.13.61-.41l.14.1c-.28.55-.71.82-1.3.8-.29-.01-.53-.09-.72-.24s-.31-.32-.36-.5c-.03-.1-.03-.37-.02-.81l.08-2.22-.59-.02.01-.15c.42-.25.77-.51 1.07-.79s.55-.59.78-.94Z" style="fill: inherit;"/><path clip-path="url(#__id8_so2l88fbo6)" d="M54.72 6.99l-.12 1.4-.16-.02c-.14-.44-.3-.75-.49-.93s-.39-.28-.59-.31c-.13-.02-.25.01-.35.07s-.16.15-.18.26c-.01.08.01.16.06.24.09.13.34.38.77.73s.7.64.82.87.16.46.13.71c-.03.22-.12.44-.28.64s-.35.34-.6.43-.5.11-.78.07c-.21-.03-.49-.13-.83-.3-.09-.05-.15-.07-.19-.08-.1-.01-.2.05-.29.18l-.16-.02.13-1.47.16.02c.09.4.25.72.47.94s.45.36.67.39c.15.02.28 0 .4-.08s.17-.17.19-.29c.02-.14-.01-.27-.09-.38s-.27-.3-.58-.55c-.44-.38-.73-.66-.85-.84-.18-.27-.25-.54-.21-.83.05-.31.2-.58.48-.8s.63-.3 1.08-.24c.24.03.47.12.68.26.08.06.15.09.2.09s.1 0 .14-.01.1-.07.19-.16Z" style="fill: inherit;"/><path clip-path="url(#__id8_so2l88fbo6)" d="M58.84 11.23l.12.14c-.3.3-.62.49-.98.58s-.7.09-1.05-.01c-.58-.16-.99-.48-1.24-.97s-.29-1.02-.14-1.58c.14-.54.43-.97.86-1.3.52-.39 1.11-.5 1.78-.32.45.12.78.32.99.6s.28.54.21.8c-.04.16-.13.28-.26.34s-.29.08-.46.03-.32-.15-.41-.29-.11-.36-.06-.65c.03-.18.02-.32-.04-.41s-.13-.15-.22-.17c-.15-.04-.29 0-.44.11-.22.17-.39.49-.51.94-.1.38-.13.75-.09 1.12s.15.68.33.91c.14.17.33.28.56.35.15.04.31.05.46.02s.35-.11.58-.24" style="fill: inherit;"/><path clip-path="url(#__id8_so2l88fbo6)" d="M63.07 7.53l-.89 2.21c.32-.13.59-.2.82-.21s.45.02.65.1c.26.11.46.26.59.48s.19.42.18.63-.11.53-.28.96l-.6 1.49c-.12.29-.16.49-.13.58s.13.19.31.28l-.06.15-2.12-.86.06-.15c.16.04.29.03.4-.03.08-.05.18-.21.29-.49l.69-1.7c.13-.31.19-.52.2-.61s-.02-.17-.06-.24-.11-.12-.19-.15c-.12-.05-.25-.06-.4-.03s-.32.11-.53.24l-.82 2.04c-.11.27-.16.45-.14.54.02.12.11.22.28.31l-.06.15-2.12-.86.06-.15c.18.06.33.05.44 0 .08-.04.17-.2.29-.49l1.56-3.87c.12-.29.16-.48.13-.57s-.13-.19-.31-.29l.06-.15Z" style="fill: inherit;"/><path clip-path="url(#__id8_so2l88fbo6)" d="M67.48 13.52c.23-.41.36-.71.4-.89s.02-.34-.04-.48c-.03-.08-.1-.15-.2-.2-.15-.08-.3-.08-.47 0-.29.14-.55.4-.77.8l-.07.13Zm.9.83l-2.17-1.2c-.24.49-.31.94-.21 1.36.08.32.25.56.53.71.17.09.35.14.53.13s.42-.08.7-.22l.1.16c-.44.28-.83.43-1.18.45s-.7-.06-1.04-.25c-.59-.32-.92-.78-.99-1.35-.06-.47.05-.94.32-1.43.33-.6.78-.98 1.33-1.13s1.07-.1 1.55.16c.4.22.66.56.79 1.03s.04.99-.26 1.59" style="fill: inherit;"/><path clip-path="url(#__id8_so2l88fbo6)" d="M71.56 14.38l-.55.75c.49-.17.87-.24 1.13-.22s.48.09.65.22c.15.11.23.23.26.38s-.01.29-.12.44-.25.25-.4.28-.28-.01-.4-.09c-.14-.1-.23-.23-.27-.38s-.07-.24-.08-.27c-.02-.03-.04-.06-.07-.09-.08-.06-.17-.08-.27-.08-.16 0-.33.06-.49.17-.25.17-.48.39-.68.67l-.56.76-.14.2c-.1.13-.15.23-.16.28-.02.09 0 .17.04.24s.13.17.27.28l-.09.13-1.97-1.44.09-.13c.17.1.3.14.41.12s.26-.19.47-.47l1.34-1.84c.14-.19.21-.32.23-.39.02-.08.02-.16-.01-.23s-.1-.15-.22-.25l.1-.13Z" style="fill: inherit;"/><path clip-path="url(#__id8_so2l88fbo6)" d="M76.51 20.57l-1.41 1.19c-.23.19-.37.33-.4.41s-.04.17-.01.29.1.25.22.39l.14.17-.12.1-2.2-2.62.12-.1.14.17c.12.15.25.24.37.29.08.04.18.04.28.01.08-.02.23-.12.46-.32l3-2.52c.23-.2.37-.33.4-.41s.04-.17.01-.29-.1-.25-.22-.39l-.14-.17.12-.1 2.2 2.62-.12.1-.14-.17c-.12-.15-.24-.24-.37-.29-.08-.04-.18-.04-.29-.02-.08.02-.23.12-.46.32L76.8 20.32l1.49 1.77 1.29-1.08c.23-.2.37-.33.4-.41s.04-.17.01-.29-.1-.25-.22-.39l-.14-.16.12-.11 2.2 2.62-.12.11-.14-.16c-.12-.15-.25-.24-.37-.29-.09-.04-.18-.04-.29-.02-.08.02-.23.12-.46.31l-3 2.52c-.23.2-.37.33-.4.41s-.04.18-.01.3.1.25.22.39l.14.16-.12.1-2.2-2.62.12-.1.14.16c.12.15.25.25.37.29.08.04.18.04.29.02.08-.02.23-.12.46-.32l1.41-1.19Z" style="fill: inherit;"/><path clip-path="url(#__id8_so2l88fbo6)" d="M80.98 27.25c.4-.25.66-.44.78-.59s.19-.29.2-.44c.01-.09-.02-.18-.08-.27-.09-.14-.22-.22-.41-.23-.32-.02-.68.09-1.06.33l-.13.08Zm.38 1.16l-1.31-2.1c-.45.31-.73.68-.84 1.09-.09.32-.05.61.11.87.1.16.24.29.4.37s.41.13.72.15l0 .19c-.51.03-.93-.03-1.25-.18s-.58-.39-.79-.72c-.35-.57-.42-1.12-.21-1.66.17-.44.5-.8.97-1.1.58-.36 1.15-.48 1.71-.35s.99.43 1.28.89c.24.39.31.81.2 1.28s-.44.89-1 1.27" style="fill: inherit;"/><path clip-path="url(#__id8_so2l88fbo6)" d="M85.69 28.34c.09.19.11.38.05.57s-.17.32-.34.41-.35.09-.53.01-.32-.2-.41-.39-.11-.37-.05-.56.17-.32.33-.41.34-.09.53-.01.32.2.41.38M84.2 29.82l-2.93 1.43c-.26.13-.41.24-.45.34s-.02.25.07.45l-.14.07-1.07-2.19.14-.07c.09.18.2.29.34.33.09.03.26-.02.52-.15l2.16-1.05c.26-.13.41-.24.45-.34s.02-.25-.06-.45l.15-.07Z" style="fill: inherit;"/><path clip-path="url(#__id8_so2l88fbo6)" d="M87.22 32.23l-4.77 1.83c-.27.1-.43.2-.48.3s-.04.25.03.46l-.15.06-.88-2.28.15-.06c.08.18.18.3.31.36.09.04.26 0 .54-.1l3.97-1.52c.27-.1.43-.2.47-.3s.04-.25-.02-.45l.15-.06Z" style="fill: inherit;"/><path clip-path="url(#__id8_so2l88fbo6)" d="M83.3 36.77c-.27.36-.37.69-.29 1 .05.17.16.28.35.35.28.1.76.06 1.42-.12.69-.18 1.13-.4 1.33-.64.14-.16.18-.34.12-.54-.08-.31-.36-.52-.83-.61Zm-.43.12l-1.48.4c-.2.05-.34.11-.4.16s-.1.13-.12.21.01.23.07.45l-.16.04-.67-2.49.16-.04c.06.19.14.32.26.39.08.05.26.03.53-.04l4.19-1.12c.28-.08.45-.16.51-.25s.06-.24.02-.45l.16-.04.49 1.83-.52.14c.25.1.43.22.57.35.19.19.33.42.4.69.09.32.07.64-.04.95s-.31.58-.6.8-.62.39-.99.49c-.4.11-.79.13-1.16.08s-.68-.19-.93-.41-.41-.5-.5-.83c-.06-.24-.08-.48-.04-.71.03-.18.11-.37.25-.59" style="fill: inherit;"/><path clip-path="url(#__id8_so2l88fbo6)" d="M87.7 41.77l-.92.13c.46.24.78.46.95.66s.27.41.3.62c.03.18 0 .33-.09.45s-.22.19-.4.22c-.19.03-.35 0-.47-.09s-.19-.21-.21-.35c-.02-.17 0-.32.09-.46s.12-.22.13-.24c.01-.03.02-.07.01-.12-.01-.09-.06-.17-.13-.25-.12-.12-.27-.19-.46-.24-.3-.06-.61-.07-.95-.02l-.93.13-.24.04c-.17.02-.27.05-.31.08-.07.05-.12.11-.15.19s-.03.21-.01.39l-.16.02-.34-2.42.16-.02c.04.19.11.32.2.38s.32.06.67.01l2.25-.32c.23-.03.38-.07.44-.1.08-.04.13-.1.16-.16s.04-.18.03-.33l.16-.02Z" style="fill: inherit;"/><path clip-path="url(#__id8_so2l88fbo6)" d="M84.87 47.15l1.38-.02c-.21-.39-.44-.67-.68-.86-.16-.12-.32-.18-.48-.18-.14 0-.25.06-.35.17-.08.08-.12.19-.11.34 0 .16.09.35.26.56m-.32.01c-.45-.54-.68-1.03-.69-1.47 0-.26.07-.47.22-.65s.34-.26.57-.27c.31-.01.6.14.85.43s.6.93 1.03 1.92l.41-.01c.31-.01.51-.03.59-.07s.15-.11.21-.21.09-.22.08-.35c0-.21-.05-.38-.14-.51-.05-.08-.12-.12-.19-.12s-.14.05-.23.14c-.12.12-.24.19-.36.19-.14 0-.27-.05-.37-.17s-.16-.27-.16-.46c0-.2.05-.37.16-.51s.24-.21.39-.21c.21 0 .41.08.61.26s.35.43.45.76.17.67.17 1.02c.01.43-.07.77-.23 1.02s-.34.42-.53.49c-.12.05-.4.08-.85.08l-1.59.03c-.19 0-.31.01-.35.03s-.08.04-.11.07-.04.07-.03.11c0 .08.06.17.17.25l-.1.15c-.22-.16-.38-.32-.48-.49s-.15-.37-.16-.58c0-.26.05-.46.15-.61s.27-.24.49-.27" style="fill: inherit;"/><path clip-path="url(#__id8_so2l88fbo6)" d="M89.57 51.84l-3.89-.48.8 1.15c.16.24.28.39.36.45s.16.1.23.11.15-.02.21-.08.12-.2.16-.4l.16.02-.25 2.01-.16-.02c.01-.19 0-.37-.06-.52s-.25-.46-.57-.93l-.38-.54-1.53.88c-.62.36-.97.57-1.05.64-.11.1-.18.23-.22.39l-.16-.02.28-2.32.16.02c-.01.1 0 .18.03.23s.06.08.1.08c.07.01.2-.04.4-.16l1.29-.74-.22-.32-.73-.09c-.31-.04-.51-.03-.59.02s-.15.18-.19.38l-.16-.02.28-2.32.16.02c-.01.19.03.33.12.42.06.06.24.11.55.15l4.14.51c.31.04.5.03.59-.02s.15-.18.2-.37l.16.02Z" style="fill: inherit;"/><path clip-path="url(#__id8_so2l88fbo6)" d="M88.21 57.58l-1.46-.36-.26 1.04-.42-.11.26-1.04-2.46-.61c-.23-.06-.38-.08-.45-.08s-.14.03-.19.08-.09.1-.1.15c-.05.2.04.43.28.68l-.13.12c-.48-.39-.65-.87-.51-1.44.07-.28.2-.5.39-.65s.38-.24.56-.25c.1-.01.37.04.8.15l2.15.54.14-.57.15.04c.16.46.34.86.55 1.21s.46.67.75.96Z" style="fill: inherit;"/><path clip-path="url(#__id8_so2l88fbo6)" d="M87.75 60.89c-.07.2-.19.34-.36.44s-.35.11-.53.05-.3-.18-.38-.36-.08-.37-.01-.56.19-.34.36-.43.35-.11.52-.05.31.18.38.36.08.37.02.56m-2.1-.01l-3.08-1.06c-.27-.09-.46-.12-.56-.08s-.19.17-.27.37l-.15-.05.79-2.31.15.05c-.06.19-.06.35.01.47.04.08.2.17.48.27l2.27.78c.27.09.46.12.56.08s.19-.16.27-.36l.15.05Z" style="fill: inherit;"/><path clip-path="url(#__id8_so2l88fbo6)" d="M86.06 64.72l-3.55-1.66.41 1.35c.08.28.15.46.2.54s.12.14.19.18.15.03.22-.01.17-.15.28-.33l.15.07-.86 1.84-.15-.07c.07-.18.11-.35.1-.51s-.09-.52-.25-1.06l-.19-.63-1.73.37c-.7.15-1.1.24-1.2.28-.14.06-.25.16-.33.31l-.14-.07.99-2.11.14.07c-.04.09-.06.17-.05.23s.04.09.07.11c.06.03.2.02.42-.02l1.46-.31-.11-.37-.67-.31c-.28-.13-.47-.19-.57-.16s-.2.12-.3.3l-.14-.07.99-2.11.14.07c-.07.18-.07.33-.02.44.04.08.19.18.48.32l3.78 1.76c.28.13.47.18.57.16s.2-.12.3-.29l.15.07Z" style="fill: inherit;"/><path clip-path="url(#__id8_so2l88fbo6)" d="M79.81 68.87c.4.25.69.4.87.44s.34.04.48-.01c.08-.03.15-.09.21-.19.09-.14.1-.3.03-.47-.12-.3-.37-.57-.76-.81l-.13-.08Zm-.88.85l1.31-2.1c-.48-.27-.93-.36-1.35-.28-.32.06-.57.22-.73.49-.1.16-.15.34-.15.52s.06.42.18.71l-.17.09c-.26-.45-.39-.85-.39-1.2s.1-.69.31-1.02c.35-.57.82-.87 1.4-.92.47-.04.94.1 1.41.39.58.36.94.83 1.07 1.39s.05 1.07-.24 1.54c-.24.39-.6.63-1.07.74s-.99-.01-1.58-.34" style="fill: inherit;"/><path clip-path="url(#__id8_so2l88fbo6)" d="M78.79 72.91l-.72-.59c.14.5.19.88.16 1.15s-.12.48-.25.64c-.11.14-.24.22-.39.24s-.29-.03-.43-.14-.24-.26-.26-.41.02-.28.11-.4c.11-.13.24-.22.4-.25s.25-.06.27-.07.06-.04.09-.07c.06-.07.09-.16.09-.27.01-.16-.04-.33-.14-.5-.15-.26-.37-.5-.63-.71l-.73-.59-.19-.15c-.13-.1-.22-.16-.27-.18-.09-.02-.17-.01-.24.02s-.17.12-.29.26l-.12-.1 1.54-1.9.12.1c-.11.16-.16.3-.14.4s.17.27.45.5l1.77 1.43c.18.15.31.23.37.25.08.03.16.03.23.01s.16-.09.27-.2l.12.1Z" style="fill: inherit;"/><path clip-path="url(#__id8_so2l88fbo6)" d="M71.82 77.54c.3.36.53.59.69.69s.31.14.46.14c.09 0 .17-.04.26-.11.13-.11.19-.25.17-.44-.02-.32-.18-.66-.47-1.01l-.1-.12Zm-1.1.54l1.9-1.59c-.37-.4-.77-.62-1.2-.68-.33-.04-.61.03-.85.24-.15.12-.25.27-.31.45s-.07.42-.05.73l-.19.03c-.1-.51-.1-.93 0-1.26s.31-.63.61-.88c.51-.43 1.05-.58 1.62-.44.46.11.86.38 1.22.81.44.53.64 1.08.58 1.65s-.29 1.03-.71 1.39c-.35.29-.76.42-1.24.38s-.94-.32-1.39-.82" style="fill: inherit;"/><path clip-path="url(#__id8_so2l88fbo6)" d="M68.71 78.5c-.18.13-.38.18-.59.15s-.37-.12-.49-.29-.15-.35-.1-.56.16-.37.35-.5.38-.18.59-.15.37.12.49.29.15.35.11.56-.16.38-.34.5" style="fill: inherit;"/><path clip-path="url(#__id8_so2l88fbo6)" d="M63.65 86.65l-.08-.14c.19-.14.33-.35.4-.61.05-.19.07-.59.05-1.2l-.14-5.08.14-.08 4.21 3.13c.51.38.82.59.95.63s.31.02.55-.08l.08.14-2.77 1.48-.08-.14.09-.05c.25-.13.41-.25.47-.36.04-.07.05-.15.01-.22-.02-.05-.06-.1-.12-.15s-.22-.18-.5-.39l-2.62-1.96.1 2.94c.01.36.03.59.05.7s.05.2.08.27.1.13.18.17.17.05.27.03c.15-.02.32-.09.52-.19l.08.14Z" style="fill: inherit;"/><path clip-path="url(#__id8_so2l88fbo6)" d="M61.23 82.46c-.21.08-.42.08-.61 0s-.33-.21-.4-.4-.06-.38.04-.57.25-.32.46-.4.41-.08.61-.01.33.21.4.4.06.38-.03.57-.24.32-.45.4" style="fill: inherit;"/><path clip-path="url(#__id8_so2l88fbo6)" d="M49.91 79.1c-.06-2.04-.21-8.32.18-8.43 12.12-3.24 13.68-13.1-.03-16.97l-.06-9.55c0 0 2.9-2.32 5.43-4.49 4.89-4.19 14.5-12.33 16.06-13.64 4.93 5.65 7.93 13.02 7.93 21.09 0 16.83-13.01 30.66-29.5 31.98M15.22 47.11c0-8.05 2.99-15.41 7.9-21.05 1.37 1.15 10.21 8.61 14.74 12.33.35.19.42.48.17.79-1.34 1.67-2.19 3.87-2.22 6.03-.26 4.84 3.8 9.07 8.19 10.59.59.17.79.34.73.85-.09.82-.12 12.01-.12 12.01s-7.03 1.45-6.32 6.77c.04.28.47 1.21.58.74.69-2.13 2.81-3.23 5.64-3.94.26-.06.13 5.08.08 6.84C28.16 77.7 15.22 63.89 15.22 47.11m29.46.77h-.01c-.11 1.21-.14 3.74-.14 3.74s-4.93-1.37-4.6-6.58c.07-1.05 1.44-3.63 1.76-3.34 3.82 3.44 2.72 1.55 2.98 6.17m1.49-25.23c-.81-.08-.71-1.14.03-1.16.84.08.77 1.13-.03 1.16m3.74 39.69c.01-.6.05-4.23.05-4.23 2.17.18 6.07 1.91 5.71 4.51-.34 2.42-3.59 3.74-5.75 4.19 0 0 .01-3.76 0-4.47M68 22.59c-2.24 1.9-19.04 16.19-20.43 17.34 0 0-2.37-1.5-2.16-1.71 2.1-2.16 11.03-5.66 12.32-11.26.26-4.37-5.27-6.11-8.84-6.29-6.39-.32-9.22 2.48-9.22 2.48s.99.34 2.54.42c-.57-.03-2.28.35-2.28.35s.92 1.48 5.39 1.52c2.34.02 8.21-1.37 8.23.84.01 1.49-1.68 2.85-4.84 4.97-.72.49-6.45 4.52-6.85 4.18-3.59-3.06-7.34-5.99-10.96-9.03-1.4-1.18-3.7-3.15-4.36-3.72 5.6-4.78 12.86-7.67 20.78-7.67 7.88 0 15.09 2.86 20.69 7.58M47.31 14.01c-18.25 0-33.1 14.85-33.1 33.1s14.85 33.1 33.1 33.1 33.1-14.85 33.1-33.1-14.85-33.1-33.1-33.1" style="fill: inherit;"/></g></g></svg>